<?xml version="1.0" encoding="UTF-8"?>
<svg width="450px" height="371px" viewBox="0 0 450 371" version="1.1" xmlns="http://www.w3.org/2000/svg" xmlns:xlink="http://www.w3.org/1999/xlink">
    <!-- Generator: Sketch 46.2 (44496) - http://www.bohemiancoding.com/sketch -->
    <title>Auto</title>
    <desc>Created with Sketch.</desc>
    <defs>
        <polygon id="path-1" points="0 370.219988 449.500907 370.219988 449.500907 -5.68434189e-14 0 -5.68434189e-14"></polygon>
    </defs>
    <g id="HOME" stroke="none" stroke-width="1" fill="none" fill-rule="evenodd">
        <g id="Home---1440px-(desktop-HD)-Copy" transform="translate(-495.000000, -3200.000000)">
            <g id="Wistjedatjes" transform="translate(100.000000, 3092.000000)">
                <g id="Group-55" transform="translate(394.000000, 105.000000)">
                    <g id="Page-1" transform="translate(1.138539, 3.387387)">
                        <path d="M449.217069,260.550273 L449.217069,350.342008 C449.217069,350.620903 449.212515,350.896411 449.207961,351.166273 C448.944958,361.647978 440.132666,369.936915 429.56247,369.936915 L394.988454,369.936915 C388.941674,369.936915 383.843296,365.254417 383.625835,359.262129 C383.620142,359.049852 382.144595,331.341023 382.144595,331.341023 C389.522328,329.291654 392.714792,321.813432 392.714792,321.813432 L402.429946,321.813432 L402.429946,319.296603 C402.429946,318.220543 402.375296,317.162549 402.267135,316.112459 L426.333573,316.094393 C431.750742,316.094393 436.709079,313.060423 439.105704,308.242429 C440.908011,304.622441 442.738782,299.539102 443.936525,292.555438 C445.06254,285.980519 446.065593,279.983714 446.883064,275.008771 C448.336978,266.177852 449.217069,260.550273 449.217069,260.550273 Z" id="Fill-1" fill="#7A7A7A"></path>
                        <path d="M449.217069,237.302746 L449.217069,260.550386 C449.217069,260.550386 448.336978,266.177965 446.883064,275.008884 L444.381694,272.824019 C442.052243,270.793845 439.055608,269.668103 435.955366,269.668103 L317.969704,269.668103 L317.937825,269.681653 L303.309875,237.347911 L406.19851,237.347911 C434.060837,237.347911 439.196787,229.374001 439.196787,229.374001 C439.196787,229.374001 441.5399,245.722662 449.217069,237.302746" id="Fill-3" fill="#CBC7C2"></path>
                        <path d="M449.217069,215.244531 L449.217069,237.303198 C441.5399,245.723114 439.196787,229.374453 439.196787,229.374453 C439.196787,229.374453 434.060837,237.348363 406.19851,237.348363 L303.309875,237.348363 L146.192626,237.348363 L43.3028524,237.348363 C15.4405249,237.348363 10.3045753,229.374453 10.3045753,229.374453 C10.3045753,229.374453 7.9626005,245.723114 0.284293199,237.303198 L0.284293199,215.244531 C0.284293199,201.732243 2.96327557,188.35545 8.17095315,175.868411 L13.6974217,162.613564 C14.7038902,167.511726 18.6728373,171.181396 23.5218751,171.946945 L23.4991043,172.09599 C23.4991043,183.712471 32.9922428,193.132795 44.7100866,193.132795 L79.7918902,193.132795 C80.6731194,196.342909 81.5725652,199.260579 82.4890892,201.754825 L34.4040312,201.754825 C27.4578045,201.754825 21.7730791,207.391438 21.7730791,214.280255 C21.7730791,217.725228 23.1939758,220.85969 25.4824393,223.128111 C27.7754569,225.39766 30.9303486,226.807942 34.4040312,226.807942 L224.542328,226.807942 L224.959034,226.807942 L415.097331,226.807942 C418.571014,226.807942 421.725905,225.39766 424.018923,223.128111 C426.307386,220.85969 427.728283,217.725228 427.728283,214.280255 C427.728283,207.391438 422.043558,201.754825 415.097331,201.754825 L367.012273,201.754825 C367.929936,199.260579 368.829381,196.342909 369.709472,193.132795 L404.790137,193.132795 C416.505704,193.132795 426.002258,183.712471 426.002258,172.09599 L425.980626,171.946945 C430.829663,171.181396 434.797472,167.50721 435.800525,162.609047 L441.330409,175.868411 C446.538087,188.35545 449.217069,201.732243 449.217069,215.244531" id="Fill-5" fill="#F3F2EE"></path>
                        <polygon id="Fill-7" fill="#C22D34" points="446.883292 275.008432 437.371937 284.445694 396.237659 284.445694 386.720612 275.008432"></polygon>
                        <mask id="mask-2" fill="white">
                            <use xlink:href="#path-1"></use>
                        </mask>
                        <g id="Clip-10"></g>
                        <path d="M160.871013,273.485237 L289.053431,273.485237 L289.053431,254.336336 L160.871013,254.336336 L160.871013,273.485237 Z M131.568433,269.667652 L146.191829,237.347459 L303.309078,237.347459 L317.938166,269.681201 L320.348453,275.008432 L386.720725,275.008432 L396.236635,284.445694 L437.370912,284.445694 L446.883406,275.008432 C446.065935,279.983375 445.061743,285.981309 443.936866,292.555099 C442.737985,299.538763 440.908353,304.622102 439.106045,308.24209 C436.708282,313.060084 431.751083,316.095183 426.333914,316.095183 L402.439395,316.095183 L402.266338,316.113249 C400.659859,300.741285 387.556413,288.749934 371.62939,288.749934 L224.959375,288.749934 L224.54267,288.749934 L77.8681008,288.749934 C61.9444937,288.749934 48.8410479,300.741285 47.2345693,316.113249 L47.0569572,316.095183 L23.168131,316.095183 C17.7509622,316.095183 12.7926247,313.060084 10.396,308.24209 C8.5936927,304.622102 6.76292191,299.538763 5.56517884,292.555099 C4.43802519,285.981309 3.43611083,279.983375 2.6186398,275.008432 L12.129995,284.445694 L53.264272,284.445694 L62.7801814,275.008432 L129.153592,275.008432 L131.568433,269.667652 Z" id="Fill-9" fill="#E7E3DC" mask="url(#mask-2)"></path>
                        <path d="M386.720839,275.008432 L320.348567,275.008432 L317.93828,269.681201 L317.969021,269.668781 L435.954683,269.668781 C439.056063,269.668781 442.052698,270.793393 444.382149,272.824697 L446.883519,275.008432 L386.720839,275.008432 Z" id="Fill-11" fill="#F3F2EE" mask="url(#mask-2)"></path>
                        <path d="M437.689361,115.380512 C437.835094,116.370758 437.898852,117.307935 437.898852,118.185268 C437.898852,131.346398 422.816626,132.009196 422.816626,132.009196 L410.602379,103.322542 C410.602379,103.322542 435.405452,99.4993105 437.689361,115.380512" id="Fill-12" fill="#AEAAA5" mask="url(#mask-2)"></path>
                        <path d="M433.85795,157.943938 L435.800297,162.60837 C434.797244,167.507661 430.829436,171.181847 425.980398,171.947397 C425.367864,172.045631 424.735975,172.095313 424.096116,172.095313 L389.468589,172.095313 L389.468589,165.468454 C389.468589,163.711529 388.03403,162.288826 386.262463,162.288826 C385.54063,162.288826 384.750484,162.528202 384.092408,162.936947 C383.434332,163.351337 382.907189,163.937355 382.717053,164.624995 L380.192912,172.095313 L374.512741,172.095313 C375.447481,167.367649 376.319602,162.567721 377.118856,157.943938 L384.551239,157.943938 L426.003169,157.943938 L433.85795,157.943938 Z" id="Fill-13" fill="#AEAAA5" mask="url(#mask-2)"></path>
                        <path d="M422.816056,132.008745 L433.857608,157.943712 L426.002827,157.943712 C426.002827,146.592577 416.722595,137.389045 405.276862,137.389045 C393.831129,137.389045 384.552036,146.592577 384.552036,157.943712 L377.118515,157.943712 C379.88858,141.928144 381.758061,127.951784 382.040419,125.822246 L392.636802,123.890306 C403.415351,121.926751 414.511553,124.907652 422.816056,132.008745" id="Fill-14" fill="#9D2229" mask="url(#mask-2)"></path>
                        <path d="M405.276521,137.389158 C416.723392,137.389158 426.002486,146.592689 426.002486,157.943825 L384.551695,157.943825 C384.551695,146.592689 393.830788,137.389158 405.276521,137.389158" id="Fill-15" fill="#C22D34" mask="url(#mask-2)"></path>
                        <path d="M425.980398,171.947284 L426.003169,172.0952 C426.003169,183.71281 416.505476,193.132005 404.791048,193.132005 L369.709244,193.132005 C371.41136,186.913891 373.037194,179.588101 374.512741,172.0952 L380.192912,172.0952 L389.468589,172.0952 L424.096116,172.0952 C424.735975,172.0952 425.367864,172.045518 425.980398,171.947284" id="Fill-16" fill="#CBC7C2" mask="url(#mask-2)"></path>
                        <path d="M415.097559,201.754486 C422.043785,201.754486 427.728511,207.392228 427.728511,214.281045 C427.728511,217.726018 426.307614,220.859351 424.019151,223.128901 C421.726133,225.397321 418.571241,226.807604 415.097559,226.807604 L224.959261,226.807604 L224.542556,226.807604 L34.4042589,226.807604 C30.9305763,226.807604 27.7756846,225.397321 25.482667,223.128901 C23.1942035,220.859351 21.7733068,217.726018 21.7733068,214.281045 C21.7733068,207.392228 27.4568937,201.754486 34.4042589,201.754486 L82.4893169,201.754486 C83.9329844,205.707568 85.4130851,208.594751 86.8840776,209.904541 C96.1278761,218.139279 219.534123,214.096997 224.787342,213.925369 C231.002627,214.132 353.41379,218.103147 362.61774,209.904541 C364.088732,208.594751 365.568833,205.707568 367.012501,201.754486 L415.097559,201.754486 Z" id="Fill-17" fill="#E7E3DC" mask="url(#mask-2)"></path>
                        <path d="M402.430173,319.296377 L402.430173,321.813206 L392.71502,321.813206 L392.71502,318.665194 C392.71502,307.963308 383.965347,299.290467 373.178828,299.290467 C362.385478,299.290467 353.638083,307.963308 353.638083,318.665194 L353.446808,318.913602 L224.959261,318.913602 L224.542556,318.913602 L96.0550096,318.913602 L95.863735,318.665194 C95.863735,307.963308 87.1163395,299.290467 76.3229894,299.290467 C65.5364705,299.290467 56.786798,307.963308 56.786798,318.665194 L56.786798,321.813206 L47.0716443,321.813206 L47.0716443,319.296377 C47.0716443,318.220317 47.1262942,317.162323 47.2344554,316.113362 C48.8420725,300.740269 61.9443798,288.750047 77.8679869,288.750047 L224.542556,288.750047 L224.959261,288.750047 L371.629277,288.750047 C387.557438,288.750047 400.659745,300.740269 402.266224,316.113362 C402.375523,317.162323 402.430173,318.220317 402.430173,319.296377" id="Fill-18" fill="#7A7A7A" mask="url(#mask-2)"></path>
                        <path d="M86.094273,317.301658 C86.094273,311.713598 81.5310086,307.188048 75.8963788,307.188048 C70.2674418,307.188048 65.7041773,311.713598 65.7041773,317.301658 C65.7041773,322.885201 70.2674418,327.409622 75.8963788,327.409622 C81.5310086,327.409622 86.094273,322.885201 86.094273,317.301658 M383.798323,317.301658 C383.798323,311.713598 379.235059,307.188048 373.603845,307.188048 C367.970354,307.188048 363.407089,311.713598 363.407089,317.301658 C363.407089,322.885201 367.970354,327.409622 373.603845,327.409622 C379.235059,327.409622 383.798323,322.885201 383.798323,317.301658 M392.715361,318.665646 L392.715361,321.813658 C392.715361,321.813658 389.522898,329.29188 382.144026,331.341249 C382.144026,331.341249 374.181084,335.622907 340.561165,333.092529 C302.991653,330.260673 265.335613,328.73409 227.656802,328.73409 L227.628339,328.73409 L224.959603,328.73409 L224.932278,328.73409 L224.569084,328.73409 L224.542898,328.73409 L221.84456,328.73409 C184.166888,328.73409 146.509709,330.260673 108.940197,333.092529 C75.3202781,335.622907 67.3561975,331.341249 67.3561975,331.341249 C59.979603,329.29188 56.7871395,321.813658 56.7871395,321.813658 L56.7871395,318.665646 C56.7871395,307.962631 65.5356736,299.290919 76.323331,299.290919 C87.1155426,299.290919 95.8640766,307.962631 95.8640766,318.665646 L96.0553511,318.912925 L224.542898,318.912925 L224.959603,318.912925 L353.446011,318.912925 L353.637286,318.665646 C353.637286,307.962631 362.38582,299.290919 373.178031,299.290919 C383.965689,299.290919 392.715361,307.962631 392.715361,318.665646" id="Fill-19" fill="#AEAAA5" mask="url(#mask-2)"></path>
                        <path d="M389.468248,165.468002 L389.468248,172.09599 L380.193709,172.09599 L382.716711,164.625672 C382.906847,163.936903 383.433991,163.350885 384.092066,162.937624 C384.750142,162.52775 385.541427,162.289504 386.26326,162.289504 C388.033689,162.289504 389.468248,163.712207 389.468248,165.468002" id="Fill-20" fill="#F9BA9B" mask="url(#mask-2)"></path>
                        <path d="M352.215592,131.265552 L382.039622,125.82202 C381.758403,127.951558 379.888922,141.927918 377.118856,157.943486 L367.198766,157.943486 C367.09402,150.514945 360.992589,144.521528 353.473678,144.521528 C345.954766,144.521528 339.853335,150.514945 339.748589,157.943486 L326.436791,157.943486 C326.214776,157.070669 326.105476,156.169624 326.105476,155.269708 C326.105476,153.69796 326.436791,152.11718 327.126746,150.626729 C329.469859,145.565972 332.978836,141.230117 337.283652,137.907089 C341.591884,134.579546 346.694816,132.274993 352.215592,131.265552" id="Fill-21" fill="#9D2229" mask="url(#mask-2)"></path>
                        <path d="M373.6043,307.188613 C379.234376,307.188613 383.79764,311.714162 383.79764,317.302222 C383.79764,322.884637 379.234376,327.410186 373.6043,327.410186 C367.970809,327.410186 363.407545,322.884637 363.407545,317.302222 C363.407545,311.714162 367.970809,307.188613 373.6043,307.188613" id="Fill-22" fill="#F3F2EE" mask="url(#mask-2)"></path>
                        <path d="M379.51161,77.8596637 C384.17962,88.4362162 376.505867,100.319171 364.869998,100.535964 L354.758633,100.584517 L339.448698,48.9844444 L362.812658,40.0598078 L379.51161,77.8596637 Z" id="Fill-23" fill="#AEAAA5" mask="url(#mask-2)"></path>
                        <path d="M367.19888,157.943938 L377.11897,157.943938 C376.319716,162.567721 375.447595,167.367649 374.512854,172.095313 L351.925378,172.095313 C343.676663,172.095313 335.730799,168.998112 329.688572,163.428118 C328.047938,161.915085 326.945832,159.996694 326.436905,157.943938 L339.748703,157.943938 L367.19888,157.943938 Z" id="Fill-24" fill="#AEAAA5" mask="url(#mask-2)"></path>
                        <path d="M224.959375,193.132231 L369.709814,193.132231 C368.828584,196.342345 367.929139,199.260014 367.012615,201.754261 L224.959375,201.754261 L224.54267,201.754261 L82.4894307,201.754261 C81.5729068,199.260014 80.673461,196.342345 79.7922317,193.132231 L224.54267,193.132231 L224.959375,193.132231 Z" id="Fill-25" fill="#F3F2EE" mask="url(#mask-2)"></path>
                        <path d="M353.474133,144.521754 C360.993045,144.521754 367.094476,150.515171 367.199221,157.943712 L339.747906,157.943712 C339.852652,150.515171 345.955221,144.521754 353.474133,144.521754" id="Fill-26" fill="#C22D34" mask="url(#mask-2)"></path>
                        <path d="M224.787001,213.925144 C219.53492,214.096771 96.1275345,218.139053 86.883736,209.904315 C85.4127436,208.594525 83.9326428,205.708471 82.4901139,201.754261 L224.542215,201.754261 L224.95892,201.754261 L367.012159,201.754261 C365.568492,205.708471 364.089529,208.594525 362.618537,209.904315 C353.414587,218.10405 231.002285,214.132903 224.787001,213.925144" id="Fill-27" fill="#F3F2EE" mask="url(#mask-2)"></path>
                        <polygon id="Fill-28" fill="#F3F2EE" mask="url(#mask-2)" points="160.871013 273.486366 289.053431 273.486366 289.053431 254.337465 160.871013 254.337465"></polygon>
                        <path d="M244.704716,52.7348468 C247.868716,52.7348468 250.457754,55.3013574 250.457754,58.4403363 C250.457754,60.0064384 249.807648,61.4347868 248.768162,62.4701982 C247.724122,63.5010931 246.285009,64.1446967 244.704716,64.1446967 L204.433452,64.1446967 C201.269452,64.1446967 198.680414,61.5781862 198.680414,58.4403363 C198.680414,56.8731051 199.329381,55.4458859 200.370006,54.4104745 C201.415185,53.3784505 202.85316,52.7348468 204.433452,52.7348468 L244.704716,52.7348468 Z" id="Fill-29" fill="#AEAAA5" mask="url(#mask-2)"></path>
                        <path d="M234.839276,157.943938 L326.437019,157.943938 C326.944807,159.996694 328.048051,161.915085 329.688686,163.428118 C335.730913,168.998112 343.676777,172.095313 351.925492,172.095313 L374.512968,172.095313 C373.037422,179.588214 371.411588,186.914004 369.709472,193.132118 L224.959034,193.132118 L224.542328,193.132118 L79.7918902,193.132118 C78.0897743,186.914004 76.4639406,179.588214 74.9895325,172.095313 L97.57587,172.095313 C105.825724,172.095313 113.770449,168.998112 119.813815,163.428118 C121.452172,161.915085 122.556555,159.996694 123.064344,157.943938 L206.000082,157.943938 C209.072998,162.60837 214.380868,165.693151 220.419679,165.693151 C226.45849,165.693151 231.76522,162.60837 234.839276,157.943938" id="Fill-30" fill="#CBC7C2" mask="url(#mask-2)"></path>
                        <path d="M205.999968,157.943938 C204.238648,155.264514 203.212824,152.063433 203.212824,148.624106 C203.212824,139.199265 210.916179,131.558448 220.419565,131.558448 C229.921812,131.558448 237.626305,139.199265 237.626305,148.624106 C237.626305,152.063433 236.600482,155.264514 234.839162,157.943938 C231.765106,162.60837 226.458376,165.693151 220.419565,165.693151 C214.380754,165.693151 209.072885,162.60837 205.999968,157.943938 M220.419565,160.88419 C227.247383,160.88419 232.781822,155.395493 232.781822,148.624106 C232.781822,141.856106 227.247383,136.367409 220.419565,136.367409 C213.590608,136.367409 208.057308,141.856106 208.057308,148.624106 C208.057308,155.395493 213.590608,160.88419 220.419565,160.88419" id="Fill-31" fill="#F3F2EE" mask="url(#mask-2)"></path>
                        <path d="M220.419679,160.88419 C213.590721,160.88419 208.057422,155.395493 208.057422,148.624106 C208.057422,141.856106 213.590721,136.367409 220.419679,136.367409 C227.247497,136.367409 232.781936,141.856106 232.781936,148.624106 C232.781936,155.395493 227.247497,160.88419 220.419679,160.88419" id="Fill-32" fill="#AEAAA5" mask="url(#mask-2)"></path>
                        <path d="M277.725764,93.5874162 L302.559578,94.1373021 C304.027155,94.1734342 305.198711,95.3838607 305.166832,96.838179 C305.12926,98.2699147 303.939487,99.418239 302.501512,99.418239 L302.442308,99.418239 L216.125109,97.5145273 C214.662087,97.4829117 213.491669,96.2668396 213.522409,94.8170378 C213.522409,94.8034883 213.522409,94.7854222 213.526963,94.7718727 C213.605522,93.3356204 214.780495,92.2324613 216.187729,92.2324613 L216.246933,92.2324613 L277.725764,93.5874162 Z" id="Fill-33" fill="#CBC7C2" mask="url(#mask-2)"></path>
                        <path d="M302.441739,99.4189165 C303.940056,99.4189165 305.12983,98.2705922 305.166263,96.8388565 C305.198142,95.3845381 304.026585,94.1729826 302.560147,94.1368505 L277.725195,93.5869646 C278.296742,90.215385 278.919522,87.5946763 279.577598,85.4696553 C282.647099,75.586388 291.333014,68.4265802 301.683472,67.1890547 C312.444943,65.9007183 322.728228,66.2834931 328.852429,66.7475652 C332.789497,67.0445261 336.284812,69.3908565 337.945941,72.9385802 C343.557799,84.9062198 342.986253,100.20592 342.968036,100.647409 L224.959603,101.246977 L224.542898,101.246977 L207.085679,101.156646 L213.522978,94.771421 C213.491099,96.266388 214.662656,97.4824601 216.12454,97.5140757 L302.441739,99.4189165 Z" id="Fill-34" fill="#7A7A7A" mask="url(#mask-2)"></path>
                        <path d="M224.959375,48.9841057 L339.449723,48.9841057 L354.758519,100.584178 L342.967809,100.647409 C342.986025,100.20592 343.557572,84.9062198 337.945713,72.9385802 C336.284584,69.3908565 332.78927,67.0445261 328.852202,66.7475652 C322.728,66.2834931 312.444715,65.9007183 301.684383,67.1890547 C291.332786,68.4265802 282.646872,75.586388 279.578509,85.4685261 C278.920433,87.5946763 278.297652,90.215385 277.726106,93.5869646 L216.247275,92.2320096 L216.188071,92.2320096 C214.780836,92.2320096 213.604725,93.3351688 213.527305,94.771421 L213.522751,94.771421 L207.085451,101.156646 L173.360786,100.985019 C171.16796,88.0497153 166.618358,78.7152048 163.71736,73.7718775 C162.164393,71.1331027 159.559416,69.273427 156.54798,68.6253069 C142.910559,65.6986042 128.427204,66.1615471 120.649844,66.7475652 C116.712776,67.0445261 113.208353,69.395373 111.546086,72.9476132 C105.943335,84.9242859 106.51602,100.216082 106.533098,100.647409 L94.7435264,100.584178 L110.047768,48.9841057 L224.54267,48.9841057 L224.959375,48.9841057 Z M250.458096,58.4405622 C250.458096,55.3015832 247.869058,52.7350727 244.705058,52.7350727 L204.433793,52.7350727 C202.853501,52.7350727 201.414388,53.3786763 200.369209,54.4107003 C199.329723,55.4461117 198.680756,56.8733309 198.680756,58.4405622 C198.680756,61.578412 201.268655,64.1449225 204.433793,64.1449225 L244.705058,64.1449225 C246.284212,64.1449225 247.724463,63.5001898 248.768504,62.4692949 C249.80799,61.4338835 250.458096,60.0066643 250.458096,58.4405622 L250.458096,58.4405622 Z" id="Fill-35" mask="url(#mask-2)"></path>
                        <path d="M163.717246,73.7715387 C166.618244,78.7148661 171.167846,88.0493766 173.360672,100.985809 L106.532984,100.648199 C106.515906,100.215743 105.943221,84.9239471 111.545972,72.9472745 C113.208239,69.3950342 116.712662,67.0441874 120.64973,66.7472264 C128.42709,66.1623375 142.910445,65.6982655 156.547866,68.6249682 C159.559302,69.2730883 162.164279,71.132764 163.717246,73.7715387" id="Fill-36" fill="#7A7A7A" mask="url(#mask-2)"></path>
                        <path d="M146.192284,237.348024 L131.56775,269.668216 L13.5467929,269.668216 C10.4454126,269.668216 7.44991637,270.793958 5.12046549,272.824132 L2.61795668,275.008997 C1.16518086,266.178078 0.285090176,260.550498 0.285090176,260.550498 L0.285090176,237.302859 C7.96225894,245.722775 10.3042338,229.374114 10.3042338,229.374114 C10.3042338,229.374114 15.4401834,237.348024 43.3025108,237.348024 L146.192284,237.348024 Z" id="Fill-37" fill="#CBC7C2" mask="url(#mask-2)"></path>
                        <path d="M62.7798398,275.008432 L2.61829824,275.008432 L5.11966851,272.824697 C7.4491194,270.793393 10.4457542,269.668781 13.5471345,269.668781 L131.568092,269.668781 L129.15325,275.008432 L62.7798398,275.008432 Z" id="Fill-38" fill="#F3F2EE" mask="url(#mask-2)"></path>
                        <path d="M123.395886,155.269482 C123.395886,156.169398 123.286586,157.070443 123.064571,157.944389 L109.752773,157.944389 C109.649166,150.51472 103.545458,144.521302 96.0276846,144.521302 C88.5087728,144.521302 82.4073421,150.51472 82.3025965,157.944389 L72.3825058,157.944389 C69.6135788,141.927692 67.7429592,127.952461 67.4606015,125.821795 L97.2846317,131.265326 C102.806546,132.274768 107.909478,134.57932 112.214294,137.906864 C116.522526,141.229891 120.031503,145.565747 122.374617,150.627632 C123.064571,152.116954 123.395886,153.697735 123.395886,155.269482" id="Fill-39" fill="#9D2229" mask="url(#mask-2)"></path>
                        <path d="M109.752317,157.943938 L123.064116,157.943938 C122.556327,159.996694 121.451945,161.915085 119.813587,163.428118 C113.770222,168.998112 105.825496,172.095313 97.5767809,172.095313 L74.9893048,172.095313 C74.0545642,167.367649 73.1813048,162.567721 72.3831889,157.943938 L82.3032796,157.943938 L109.752317,157.943938 Z" id="Fill-40" fill="#AEAAA5" mask="url(#mask-2)"></path>
                        <path d="M96.0275708,144.521754 C103.546483,144.521754 109.649052,150.515171 109.752659,157.943712 L82.3024826,157.943712 C82.4072282,150.515171 88.5086589,144.521754 96.0275708,144.521754" id="Fill-41" fill="#C22D34" mask="url(#mask-2)"></path>
                        <path d="M339.449268,48.9841057 L224.95892,48.9841057 L224.542215,48.9841057 L110.048451,48.9841057 L86.6890458,40.0605982 L77.0319577,36.3683459 C113.996905,22.5579676 219.734164,24.9042979 224.773338,25.0262438 C224.796109,25.0262438 224.827988,25.0217273 224.855313,25.0262438 C231.311968,24.8726823 335.771786,22.6618474 372.470315,36.3683459 L362.813227,40.0605982 L339.449268,48.9841057 Z" id="Fill-42" fill="#7A7A7A" mask="url(#mask-2)"></path>
                        <path d="M69.9902076,77.8596637 L86.6891597,40.0598078 L110.048565,48.9844444 L94.7431849,100.584517 L84.6318196,100.535964 C72.9959506,100.319171 65.3176433,88.4362162 69.9902076,77.8596637" id="Fill-43" fill="#AEAAA5" mask="url(#mask-2)"></path>
                        <path d="M75.8963788,307.188613 C81.5310086,307.188613 86.094273,311.714162 86.094273,317.302222 C86.094273,322.884637 81.5310086,327.410186 75.8963788,327.410186 C70.2674418,327.410186 65.7041773,322.884637 65.7041773,317.302222 C65.7041773,311.714162 70.2674418,307.188613 75.8963788,307.188613" id="Fill-44" fill="#F3F2EE" mask="url(#mask-2)"></path>
                        <path d="M79.7923456,193.132231 L44.7105421,193.132231 C32.9926982,193.132231 23.4995597,183.713035 23.4995597,172.095426 L23.5211919,171.94751 C24.1337259,172.045744 24.7656151,172.095426 25.4054741,172.095426 L60.034139,172.095426 L69.3086781,172.095426 L74.9888494,172.095426 C76.464396,179.588327 78.0902297,186.914117 79.7923456,193.132231" id="Fill-45" fill="#CBC7C2" mask="url(#mask-2)"></path>
                        <path d="M224.959375,101.246525 L342.967809,100.648086 L354.758519,100.584855 L364.869884,100.535174 C376.505753,100.31951 384.179506,88.436555 379.511496,77.8600024 L362.812544,40.0601465 L372.470771,36.3678943 L402.421179,108.045011 L224.959375,108.045011 L224.54267,108.045011 L47.0808665,108.045011 L77.0312746,36.3678943 L86.6895013,40.0601465 L69.9905491,77.8600024 C65.3179849,88.436555 72.9951537,100.31951 84.6321612,100.535174 L94.7435264,100.584855 L106.533098,100.648086 L173.360786,100.985696 L207.085451,101.156195 L224.54267,101.246525 L224.959375,101.246525 Z" id="Fill-46" fill="#9D2229" mask="url(#mask-2)"></path>
                        <path d="M74.9890771,172.095539 L69.3089058,172.095539 L66.7847647,164.62522 C66.5934902,163.936452 66.0674851,163.351563 65.4094096,162.937172 C64.751334,162.527298 63.9600494,162.289052 63.2393542,162.289052 C61.4677874,162.289052 60.0332282,163.711755 60.0332282,165.467551 L60.0332282,172.095539 L25.4057018,172.095539 C24.7658428,172.095539 24.1339537,172.045857 23.5214196,171.947623 C18.6723819,171.180944 14.7045733,167.511274 13.6969662,162.613112 L13.6969662,162.608596 L15.643868,157.944163 L23.4986489,157.944163 L64.9505783,157.944163 L72.3829612,157.944163 C73.1810771,162.567947 74.0543365,167.367875 74.9890771,172.095539" id="Fill-47" fill="#AEAAA5" mask="url(#mask-2)"></path>
                        <path d="M72.3828474,157.943938 L64.9504645,157.943938 C64.9504645,146.592802 55.6702327,137.389271 44.2244997,137.389271 C32.7787668,137.389271 23.498535,146.592802 23.498535,157.943938 L15.6437542,157.943938 L26.6853058,132.008971 C34.9852554,124.907877 46.0860111,121.926977 56.8645602,123.890532 L67.4609431,125.822472 C67.7433008,127.95201 69.6127819,141.927241 72.3828474,157.943938" id="Fill-48" fill="#9D2229" mask="url(#mask-2)"></path>
                        <path d="M66.7846509,164.625559 L69.3087919,172.095877 L60.0331144,172.095877 L60.0331144,165.467889 C60.0331144,163.712094 61.4676736,162.289391 63.2392403,162.289391 C63.9610741,162.289391 64.7512202,162.527637 65.4092957,162.937511 C66.0673713,163.351902 66.5933763,163.93679 66.7846509,164.625559" id="Fill-49" fill="#F9BA9B" mask="url(#mask-2)"></path>
                        <path d="M67.3561975,331.340798 C67.3561975,331.340798 65.8806509,359.050756 65.8760967,359.261903 C65.6586358,365.25532 60.5602579,369.937819 54.5123385,369.937819 L19.939462,369.937819 C9.36471134,369.937819 0.5569733,361.647753 0.293970781,351.166047 C0.289416625,350.896185 0.284862469,350.620677 0.284862469,350.341783 L0.284862469,260.550047 C0.284862469,260.550047 1.16495315,266.178756 2.61886751,275.008545 C3.4352,279.983488 4.4382529,285.981422 5.56540655,292.555212 C6.76314962,299.538876 8.5939204,304.622215 10.3962277,308.242203 C12.7928524,313.060197 17.7511899,316.095296 23.1672202,316.095296 L47.0571849,316.095296 L47.234797,316.113362 C47.1254972,317.162323 47.0719859,318.220317 47.0719859,319.296377 L47.0719859,321.813206 L56.7871395,321.813206 C56.7871395,321.813206 59.979603,329.292557 67.3561975,331.340798" id="Fill-50" fill="#7A7A7A" mask="url(#mask-2)"></path>
                        <path d="M44.2240443,137.389158 C55.6709159,137.389158 64.9500091,146.592689 64.9500091,157.943825 L23.4992181,157.943825 C23.4992181,146.592689 32.7783113,137.389158 44.2240443,137.389158" id="Fill-51" fill="#C22D34" mask="url(#mask-2)"></path>
                        <polygon id="Fill-52" fill="#C22D34" mask="url(#mask-2)" points="62.7798398 275.008432 53.265069 284.445694 12.1307919 284.445694 2.61829824 275.008432"></polygon>
                        <path d="M372.470202,36.3680072 C335.771673,22.6615087 231.311854,24.8723435 224.855199,25.0259051 C224.827874,25.0213886 224.795995,25.0259051 224.773224,25.0259051 C219.73405,24.9039592 113.997929,22.558758 77.0318438,36.3680072 L47.0802972,108.045124 L224.542101,108.045124 L224.958806,108.045124 L402.421748,108.045124 L372.470202,36.3680072 Z M26.6856474,132.008632 L38.8998942,103.321977 L57.2007708,60.3439351 C72.7008413,23.940812 108.672982,0.283298498 148.521849,0.283298498 L224.542101,0.283298498 L224.958806,0.283298498 L300.980196,0.283298498 C340.829063,0.283298498 376.801204,23.940812 392.301275,60.3439351 L410.602151,103.321977 L422.816398,132.008632 C414.511894,124.908668 403.415693,121.926638 392.637144,123.890193 L382.039622,125.822133 L352.215592,131.265665 C346.694816,132.273977 341.591884,134.579659 337.283652,137.907202 C332.978836,141.230229 329.469859,145.566085 327.126746,150.626842 C326.436791,152.117292 326.105476,153.698073 326.105476,155.269821 C326.105476,156.169737 326.214776,157.070782 326.436791,157.943599 L234.839048,157.943599 C236.600368,155.265305 237.626191,152.063094 237.626191,148.623767 C237.626191,139.198926 229.921698,131.558109 220.419451,131.558109 C210.916065,131.558109 203.21271,139.198926 203.21271,148.623767 C203.21271,152.063094 204.238534,155.265305 205.999854,157.943599 L123.064116,157.943599 C123.28727,157.070782 123.395431,156.169737 123.395431,155.269821 C123.395431,153.698073 123.064116,152.117292 122.374161,150.626842 C120.031048,145.566085 116.522071,141.230229 112.213839,137.907202 C107.910161,134.579659 102.806091,132.273977 97.2853149,131.265665 L67.4601461,125.822133 L56.8649018,123.890193 C46.0863526,121.926638 34.985597,124.908668 26.6856474,132.008632 L26.6856474,132.008632 Z" id="Fill-53" fill="#E7E3DC" mask="url(#mask-2)"></path>
                        <path d="M38.8994388,103.322316 L26.6851919,132.008971 C26.6851919,132.008971 11.5984111,131.346172 11.5984111,118.17601 C11.5984111,117.303193 11.6667234,116.370532 11.8079023,115.380286 C14.0963657,99.4990847 38.8994388,103.322316 38.8994388,103.322316" id="Fill-54" fill="#AEAAA5" mask="url(#mask-2)"></path>
                    </g>
                </g>
            </g>
        </g>
    </g>
</svg>