<svg width="450" height="371" xmlns="http://www.w3.org/2000/svg" xmlns:xlink="http://www.w3.org/1999/xlink"><defs><path id="a" d="M0 370.22h449.5V0H0z"/></defs><g transform="translate(.139 .387)" fill="none" fill-rule="evenodd"><path d="M449.217 260.55v89.792c0 .279-.004.554-.009.824-.263 10.482-9.075 18.77-19.646 18.77h-34.574c-6.046 0-11.145-4.682-11.362-10.674-.006-.212-1.481-27.921-1.481-27.921 7.377-2.05 10.57-9.528 10.57-9.528h9.715v-2.516c0-1.076-.055-2.134-.163-3.185l24.067-.018c5.417 0 10.375-3.034 12.772-7.852 1.802-3.62 3.633-8.703 4.83-15.687a2671.3 2671.3 0 0 0 2.947-17.546c1.454-8.831 2.334-14.459 2.334-14.459z" fill="#7A7A7A"/><path d="M449.217 237.303v23.247s-.88 5.628-2.334 14.459l-2.501-2.185a12.835 12.835 0 0 0-8.427-3.156H317.97l-.032.014-14.628-32.334h102.889c27.862 0 32.998-7.974 32.998-7.974s2.343 16.349 10.02 7.929" fill="#CBC7C2"/><path d="M449.217 215.245v22.058c-7.677 8.42-10.02-7.929-10.02-7.929s-5.136 7.974-32.998 7.974H43.303c-27.862 0-32.998-7.974-32.998-7.974s-2.342 16.35-10.02 7.93v-22.06c0-13.512 2.678-26.889 7.886-39.376l5.526-13.254c1.007 4.898 4.976 8.567 9.825 9.333l-.023.149c0 11.616 9.493 21.037 21.211 21.037h35.082c.881 3.21 1.78 6.128 2.697 8.622H34.404c-6.946 0-12.63 5.636-12.63 12.525 0 3.445 1.42 6.58 3.708 8.848a12.657 12.657 0 0 0 8.922 3.68h380.693c3.474 0 6.629-1.41 8.922-3.68 2.288-2.268 3.71-5.403 3.71-8.848 0-6.889-5.685-12.525-12.632-12.525h-48.085c.918-2.494 1.817-5.412 2.697-8.622h35.081c11.716 0 21.212-9.42 21.212-21.037l-.021-.15c4.849-.765 8.816-4.439 9.82-9.337l5.53 13.26a102.276 102.276 0 0 1 7.886 39.376" fill="#F3F2EE"/><path fill="#C22D34" d="M446.883 275.008l-9.511 9.438h-41.134l-9.517-9.438z"/><mask id="b" fill="#fff"><use xlink:href="#a"/></mask><path d="M160.871 273.485h128.182v-19.149H160.871v19.15zm-29.303-3.817l14.624-32.32h157.117l14.63 32.333 2.41 5.327h66.372l9.516 9.438h41.134l9.512-9.438a2736.424 2736.424 0 0 1-2.946 17.547c-1.199 6.984-3.029 12.067-4.831 15.687-2.398 4.818-7.355 7.853-12.772 7.853h-23.895l-.173.018c-1.606-15.372-14.71-27.363-30.637-27.363H77.868c-15.924 0-29.027 11.991-30.633 27.363l-.178-.018H23.168c-5.417 0-10.375-3.035-12.772-7.853-1.802-3.62-3.633-8.703-4.83-15.687a2585.186 2585.186 0 0 1-2.947-17.547l9.511 9.438h41.134l9.516-9.438h66.374l2.414-5.34z" fill="#E7E3DC" mask="url(#b)"/><path d="M386.72 275.008H320.35l-2.41-5.327.03-.012h117.986a12.83 12.83 0 0 1 8.427 3.156l2.502 2.183H386.72z" fill="#F3F2EE" mask="url(#b)"/><path d="M437.69 115.38c.145.99.209 1.928.209 2.805 0 13.161-15.082 13.824-15.082 13.824l-12.215-28.686s24.803-3.824 27.087 12.058M433.858 157.944l1.942 4.664c-1.003 4.9-4.97 8.574-9.82 9.34-.612.098-1.244.147-1.884.147H389.47v-6.627c0-1.756-1.435-3.18-3.207-3.18-.721 0-1.512.24-2.17.649-.658.414-1.185 1-1.375 1.688l-2.524 7.47h-5.68a603.134 603.134 0 0 0 2.606-14.151H433.858z" fill="#AEAAA5" mask="url(#b)"/><path d="M422.816 132.009l11.042 25.935h-7.855c0-11.351-9.28-20.555-20.726-20.555s-20.725 9.204-20.725 20.555h-7.433a884.54 884.54 0 0 0 4.921-32.122l10.597-1.932c10.778-1.963 21.875 1.018 30.18 8.119" fill="#9D2229" mask="url(#b)"/><path d="M405.277 137.39c11.446 0 20.725 9.203 20.725 20.554h-41.45c0-11.351 9.279-20.555 20.725-20.555" fill="#C22D34" mask="url(#b)"/><path d="M425.98 171.947l.023.148c0 11.618-9.498 21.037-21.212 21.037h-35.082c1.702-6.218 3.328-13.544 4.804-21.037h49.583c.64 0 1.272-.05 1.884-.148" fill="#CBC7C2" mask="url(#b)"/><path d="M415.098 201.754c6.946 0 12.63 5.638 12.63 12.527 0 3.445-1.42 6.578-3.709 8.848a12.661 12.661 0 0 1-8.921 3.679H34.404c-3.473 0-6.628-1.41-8.921-3.68-2.289-2.269-3.71-5.402-3.71-8.847 0-6.889 5.684-12.527 12.631-12.527H82.49c1.444 3.954 2.924 6.84 4.395 8.15 9.244 8.235 132.65 4.193 137.903 4.021 6.216.207 128.627 4.178 137.83-4.02 1.472-1.31 2.952-4.197 4.396-8.15h48.085z" fill="#E7E3DC" mask="url(#b)"/><path d="M402.43 319.296v2.517h-9.715v-3.148c0-10.702-8.75-19.375-19.536-19.375-10.794 0-19.54 8.673-19.54 19.375l-.192.249H96.055l-.191-.249c0-10.702-8.748-19.375-19.541-19.375-10.787 0-19.536 8.673-19.536 19.375v3.148h-9.715v-2.517c0-1.076.054-2.134.162-3.183 1.608-15.373 14.71-27.363 30.634-27.363H371.629c15.928 0 29.03 11.99 30.637 27.363a30.65 30.65 0 0 1 .164 3.183" fill="#7A7A7A" mask="url(#b)"/><path d="M86.094 317.302c0-5.588-4.563-10.114-10.198-10.114-5.629 0-10.192 4.526-10.192 10.114 0 5.583 4.563 10.108 10.192 10.108 5.635 0 10.198-4.525 10.198-10.108m297.704 0c0-5.588-4.563-10.114-10.194-10.114-5.634 0-10.197 4.526-10.197 10.114 0 5.583 4.563 10.108 10.197 10.108 5.631 0 10.194-4.525 10.194-10.108m8.917 1.364v3.148s-3.192 7.478-10.571 9.527c0 0-7.963 4.282-41.583 1.752-37.57-2.832-75.225-4.359-112.904-4.359H221.845c-37.678 0-75.335 1.527-112.905 4.359-33.62 2.53-41.584-1.752-41.584-1.752-7.376-2.05-10.569-9.527-10.569-9.527v-3.148c0-10.703 8.749-19.375 19.536-19.375 10.793 0 19.541 8.672 19.541 19.375l.191.247H353.446l.191-.247c0-10.703 8.749-19.375 19.541-19.375 10.788 0 19.537 8.672 19.537 19.375" fill="#AEAAA5" mask="url(#b)"/><path d="M389.468 165.468v6.628h-9.274l2.523-7.47c.19-.69.717-1.275 1.375-1.688.658-.41 1.45-.648 2.171-.648 1.77 0 3.205 1.422 3.205 3.178" fill="#F9BA9B" mask="url(#b)"/><path d="M352.216 131.266l29.824-5.444a880.53 880.53 0 0 1-4.921 32.121h-9.92c-.105-7.428-6.206-13.421-13.725-13.421-7.52 0-13.62 5.993-13.725 13.421h-13.312a11.026 11.026 0 0 1 .69-7.317 34.234 34.234 0 0 1 10.157-12.719 34.586 34.586 0 0 1 14.932-6.641" fill="#9D2229" mask="url(#b)"/><path d="M373.604 307.189c5.63 0 10.194 4.525 10.194 10.113 0 5.583-4.564 10.108-10.194 10.108-5.633 0-10.196-4.525-10.196-10.108 0-5.588 4.563-10.113 10.196-10.113" fill="#F3F2EE" mask="url(#b)"/><path d="M379.512 77.86c4.668 10.576-3.006 22.46-14.642 22.676l-10.111.049-15.31-51.6 23.364-8.925 16.699 37.8zM367.199 157.944h9.92c-.8 4.624-1.671 9.424-2.606 14.151h-22.588a32.815 32.815 0 0 1-22.236-8.667 11.083 11.083 0 0 1-3.252-5.484h40.762z" fill="#AEAAA5" mask="url(#b)"/><path d="M224.96 193.132h144.75c-.881 3.21-1.78 6.128-2.697 8.622H82.489c-.916-2.494-1.816-5.412-2.697-8.622H224.96z" fill="#F3F2EE" mask="url(#b)"/><path d="M353.474 144.522c7.519 0 13.62 5.993 13.725 13.422h-27.451c.105-7.429 6.207-13.422 13.726-13.422" fill="#C22D34" mask="url(#b)"/><path d="M224.787 213.925c-5.252.172-128.66 4.214-137.903-4.02-1.471-1.31-2.951-4.197-4.394-8.15h284.522c-1.444 3.953-2.922 6.84-4.393 8.15-9.204 8.2-131.617 4.228-137.832 4.02M160.871 273.486h128.182v-19.149H160.871z" fill="#F3F2EE" mask="url(#b)"/><path d="M244.705 52.735c3.164 0 5.753 2.566 5.753 5.705 0 1.566-.65 2.995-1.69 4.03a5.778 5.778 0 0 1-4.063 1.675h-40.272c-3.164 0-5.753-2.567-5.753-5.705a5.68 5.68 0 0 1 1.69-4.03 5.776 5.776 0 0 1 4.063-1.675h40.272z" fill="#AEAAA5" mask="url(#b)"/><path d="M234.84 157.944h91.597a11.075 11.075 0 0 0 3.252 5.484 32.815 32.815 0 0 0 22.236 8.667h22.588c-1.476 7.493-3.101 14.819-4.804 21.037H79.792c-1.702-6.218-3.328-13.544-4.802-21.037h22.586c8.25 0 16.194-3.097 22.238-8.667a11.09 11.09 0 0 0 3.25-5.484H206a17.232 17.232 0 0 0 14.42 7.75 17.234 17.234 0 0 0 14.42-7.75" fill="#CBC7C2" mask="url(#b)"/><path d="M206 157.944a16.908 16.908 0 0 1-2.787-9.32c0-9.425 7.703-17.066 17.207-17.066 9.502 0 17.206 7.641 17.206 17.066 0 3.44-1.026 6.64-2.787 9.32a17.234 17.234 0 0 1-14.42 7.75 17.232 17.232 0 0 1-14.419-7.75m14.42 2.94c6.827 0 12.362-5.489 12.362-12.26 0-6.768-5.535-12.257-12.362-12.257-6.83 0-12.363 5.49-12.363 12.257 0 6.771 5.534 12.26 12.363 12.26" fill="#F3F2EE" mask="url(#b)"/><path d="M220.42 160.884c-6.83 0-12.363-5.489-12.363-12.26 0-6.768 5.534-12.257 12.363-12.257 6.827 0 12.362 5.49 12.362 12.257 0 6.771-5.535 12.26-12.362 12.26" fill="#AEAAA5" mask="url(#b)"/><path d="M277.726 93.587l24.834.55c1.467.036 2.639 1.247 2.607 2.701-.038 1.432-1.228 2.58-2.665 2.58h-.06l-86.317-1.903c-1.463-.032-2.633-1.248-2.603-2.698 0-.014 0-.032.005-.045a2.672 2.672 0 0 1 2.66-2.54h.06l61.479 1.355z" fill="#CBC7C2" mask="url(#b)"/><path d="M302.442 99.419c1.498 0 2.688-1.148 2.724-2.58.032-1.454-1.14-2.666-2.606-2.702l-24.835-.55c.572-3.372 1.195-5.992 1.853-8.117 3.07-9.884 11.755-17.043 22.105-18.28 10.762-1.29 21.045-.907 27.17-.442 3.936.297 7.432 2.643 9.093 6.19 5.612 11.968 5.04 27.268 5.022 27.71l-118.008.599h-.417l-17.457-.09 6.437-6.386a2.67 2.67 0 0 0 2.602 2.743l86.317 1.905z" fill="#7A7A7A" mask="url(#b)"/><path d="M224.96 48.984h114.49l15.309 51.6-11.791.063c.018-.441.59-15.74-5.022-27.708-1.661-3.548-5.157-5.894-9.094-6.191-6.124-.465-16.407-.847-27.168.441-10.351 1.238-19.037 8.397-22.105 18.28-.659 2.126-1.281 4.746-1.853 8.118l-61.479-1.355h-.059a2.671 2.671 0 0 0-2.66 2.54h-.005l-6.438 6.385-33.724-.172c-2.193-12.935-6.743-22.27-9.644-27.213-1.553-2.639-4.158-4.499-7.169-5.147-13.637-2.926-28.12-2.463-35.898-1.877-3.937.297-7.442 2.647-9.104 6.2-5.603 11.976-5.03 27.268-5.013 27.7l-11.79-.064 15.305-51.6h114.911zm25.498 9.457c0-3.14-2.589-5.706-5.753-5.706h-40.271c-1.58 0-3.02.644-4.065 1.676a5.683 5.683 0 0 0-1.688 4.03c0 3.137 2.588 5.704 5.753 5.704h40.271c1.58 0 3.02-.645 4.064-1.676a5.683 5.683 0 0 0 1.69-4.028z" mask="url(#b)"/><path d="M163.717 73.772c2.901 4.943 7.45 14.277 9.644 27.214l-66.828-.338c-.017-.432-.59-15.724 5.013-27.7 1.662-3.553 5.167-5.904 9.104-6.2 7.777-.586 22.26-1.05 35.898 1.877 3.011.648 5.616 2.508 7.17 5.147" fill="#7A7A7A" mask="url(#b)"/><path d="M146.192 237.348l-14.624 32.32H13.547a12.833 12.833 0 0 0-8.427 3.156l-2.502 2.185A2049.457 2049.457 0 0 1 .285 260.55v-23.247c7.677 8.42 10.02-7.929 10.02-7.929s5.135 7.974 32.998 7.974h102.89z" fill="#CBC7C2" mask="url(#b)"/><path d="M62.78 275.008H2.618l2.502-2.183a12.83 12.83 0 0 1 8.427-3.156h118.021l-2.415 5.34H62.78z" fill="#F3F2EE" mask="url(#b)"/><path d="M123.396 155.27c0 .9-.11 1.8-.331 2.674h-13.312c-.104-7.43-6.208-13.423-13.725-13.423-7.52 0-13.62 5.994-13.725 13.423h-9.92a887.23 887.23 0 0 1-4.922-32.122l29.824 5.443a34.553 34.553 0 0 1 14.93 6.642 34.203 34.203 0 0 1 10.16 12.72c.69 1.49 1.02 3.07 1.02 4.642" fill="#9D2229" mask="url(#b)"/><path d="M109.752 157.944h13.312a11.09 11.09 0 0 1-3.25 5.484 32.817 32.817 0 0 1-22.237 8.667H74.989a597.289 597.289 0 0 1-2.606-14.151h37.37z" fill="#AEAAA5" mask="url(#b)"/><path d="M96.028 144.522c7.518 0 13.621 5.993 13.725 13.422h-27.45c.104-7.429 6.206-13.422 13.725-13.422" fill="#C22D34" mask="url(#b)"/><path d="M339.45 48.984H110.047L86.69 40.061l-9.657-3.693c36.965-13.81 142.702-11.464 147.741-11.342.023 0 .055-.004.082 0 6.457-.153 110.917-2.364 147.615 11.342l-9.657 3.693-23.364 8.923z" fill="#7A7A7A" mask="url(#b)"/><path d="M69.99 77.86l16.7-37.8 23.359 8.924-15.306 51.6-10.111-.048c-11.636-.217-19.314-12.1-14.642-22.676" fill="#AEAAA5" mask="url(#b)"/><path d="M75.896 307.189c5.635 0 10.198 4.525 10.198 10.113 0 5.583-4.563 10.108-10.198 10.108-5.629 0-10.192-4.525-10.192-10.108 0-5.588 4.563-10.113 10.192-10.113" fill="#F3F2EE" mask="url(#b)"/><path d="M79.792 193.132H44.711c-11.718 0-21.211-9.419-21.211-21.037l.021-.147c.613.098 1.245.147 1.884.147H74.99c1.475 7.493 3.101 14.82 4.803 21.037" fill="#CBC7C2" mask="url(#b)"/><path d="M224.96 101.247l118.008-.599 11.79-.063 10.112-.05c11.636-.215 19.31-12.098 14.641-22.675l-16.698-37.8 9.658-3.692 29.95 71.677H47.081l29.95-71.677 9.659 3.692-16.7 37.8c-4.672 10.577 3.005 22.46 14.642 22.675l10.112.05 11.79.063 66.827.338 33.724.17 17.458.09h.416z" fill="#9D2229" mask="url(#b)"/><path d="M74.99 172.096h-5.681l-2.524-7.47c-.192-.69-.718-1.274-1.376-1.689-.658-.41-1.449-.648-2.17-.648-1.771 0-3.206 1.423-3.206 3.179v6.628H25.406c-.64 0-1.272-.05-1.885-.148-4.849-.767-8.816-4.437-9.824-9.335v-.004l1.947-4.665H72.383a597.288 597.288 0 0 0 2.606 14.152" fill="#AEAAA5" mask="url(#b)"/><path d="M72.383 157.944H64.95c0-11.351-9.28-20.555-20.726-20.555-11.445 0-20.725 9.204-20.725 20.555h-7.855l11.041-25.935c8.3-7.101 19.401-10.082 30.18-8.118l10.596 1.931a884.947 884.947 0 0 0 4.922 32.122" fill="#9D2229" mask="url(#b)"/><path d="M66.785 164.626l2.524 7.47h-9.276v-6.628c0-1.756 1.435-3.179 3.206-3.179.722 0 1.512.239 2.17.649.658.414 1.184.999 1.376 1.688" fill="#F9BA9B" mask="url(#b)"/><path d="M67.356 331.34s-1.475 27.71-1.48 27.922c-.217 5.993-5.316 10.676-11.364 10.676H19.94c-10.574 0-19.382-8.29-19.645-18.772-.005-.27-.01-.545-.01-.824V260.55s.881 5.629 2.335 14.459c.816 4.974 1.82 10.972 2.946 17.546 1.198 6.984 3.029 12.067 4.831 15.687 2.397 4.818 7.355 7.853 12.771 7.853h23.89l.178.018a30.651 30.651 0 0 0-.163 3.183v2.517h9.715s3.193 7.48 10.57 9.528" fill="#7A7A7A" mask="url(#b)"/><path d="M44.224 137.39c11.447 0 20.726 9.203 20.726 20.554H23.5c0-11.351 9.278-20.555 20.724-20.555M62.78 275.008l-9.515 9.438H12.131l-9.513-9.438z" fill="#C22D34" mask="url(#b)"/><path d="M372.47 36.368c-36.698-13.706-141.158-11.496-147.615-11.342-.027-.005-.059 0-.082 0-5.039-.122-110.775-2.467-147.741 11.342L47.08 108.045h355.342L372.47 36.368zm-345.784 95.64L38.9 103.323l18.3-42.978C72.7 23.94 108.674.284 148.523.284H300.98c39.85 0 75.821 23.657 91.321 60.06l18.301 42.978 12.214 28.687c-8.304-7.1-19.4-10.082-30.179-8.119l-10.597 1.932-29.824 5.444a34.573 34.573 0 0 0-14.932 6.641 34.234 34.234 0 0 0-10.157 12.72 11.026 11.026 0 0 0-.69 7.317h-91.598a16.906 16.906 0 0 0 2.787-9.32c0-9.425-7.704-17.066-17.207-17.066s-17.206 7.64-17.206 17.066c0 3.44 1.026 6.641 2.787 9.32h-82.936a11.026 11.026 0 0 0-.69-7.317 34.208 34.208 0 0 0-10.16-12.72 34.536 34.536 0 0 0-14.929-6.641l-29.825-5.444-10.595-1.932c-10.779-1.963-21.88 1.019-30.18 8.119z" fill="#E7E3DC" mask="url(#b)"/><path d="M38.9 103.322L26.684 132.01s-15.087-.663-15.087-13.833c0-.873.069-1.805.21-2.796 2.288-15.88 27.091-12.058 27.091-12.058" fill="#AEAAA5" mask="url(#b)"/></g></svg>