<?xml version="1.0" encoding="UTF-8"?>
<svg width="32px" height="32px" viewBox="0 0 32 32" version="1.1" xmlns="http://www.w3.org/2000/svg" xmlns:xlink="http://www.w3.org/1999/xlink">
    <!-- Generator: Sketch 46.2 (44496) - http://www.bohemiancoding.com/sketch -->
    <title>Combined Shape</title>
    <desc>Created with Sketch.</desc>
    <defs>
        <path d="M16,31.5833333 C7.39356265,31.5833333 0.416666667,24.6064374 0.416666667,16 C0.416666667,7.39356265 7.39356265,0.416666667 16,0.416666667 C24.6064374,0.416666667 31.5833333,7.39356265 31.5833333,16 C31.5833333,24.6064374 24.6064374,31.5833333 16,31.5833333 Z M16,28.75 C23.0416306,28.75 28.75,23.0416306 28.75,16 C28.75,8.95836944 23.0416306,3.25 16,3.25 C8.95836944,3.25 3.25,8.95836944 3.25,16 C3.25,23.0416306 8.95836944,28.75 16,28.75 Z M17.4166667,7.5 L17.4166667,15.4131975 L21.2517346,19.2482654 C21.8049774,19.8015081 21.8049774,20.6984919 21.2517346,21.2517346 C20.6984919,21.8049774 19.8015081,21.8049774 19.2482654,21.2517346 L14.9982654,17.0017346 C14.7325889,16.7360581 14.5833333,16.3757234 14.5833333,16 L14.5833333,7.5 C14.5833333,6.7175966 15.2175966,6.08333333 16,6.08333333 C16.7824034,6.08333333 17.4166667,6.7175966 17.4166667,7.5 Z" id="path-1"></path>
    </defs>
    <g id="DETAIL" stroke="none" stroke-width="1" fill="none" fill-rule="evenodd">
        <g id="Detail---1440px-(desktop-HD)-Copy" transform="translate(-150.000000, -957.000000)">
            <g id="Event" transform="translate(0.000000, 278.000000)">
                <g id="Info" transform="translate(101.000000, 90.000000)">
                    <g id="Tijd" transform="translate(49.000000, 589.000000)">
                        <g id="clock">
                            <mask id="mask-2" fill="white">
                                <use xlink:href="#path-1"></use>
                            </mask>
                            <use id="Combined-Shape" fill="#000000" fill-rule="nonzero" xlink:href="#path-1"></use>
                        </g>
                    </g>
                </g>
            </g>
        </g>
    </g>
</svg>