<?xml version="1.0" encoding="UTF-8"?>
<svg width="32px" height="32px" viewBox="0 0 32 32" version="1.1" xmlns="http://www.w3.org/2000/svg" xmlns:xlink="http://www.w3.org/1999/xlink">
    <!-- Generator: Sketch 46.2 (44496) - http://www.bohemiancoding.com/sketch -->
    <title>Combined Shape</title>
    <desc>Created with Sketch.</desc>
    <defs></defs>
    <g id="DETAIL" stroke="none" stroke-width="1" fill="none" fill-rule="evenodd">
        <g id="Detail---1440px-(desktop-HD)-Copy" transform="translate(-147.000000, -803.000000)" fill-rule="nonzero" fill="#000000">
            <g id="Event" transform="translate(0.000000, 278.000000)">
                <g id="Info" transform="translate(101.000000, 90.000000)">
                    <g id="Locatie" transform="translate(46.000000, 434.000000)">
                        <g id="compass" transform="translate(0.000000, 1.000000)">
                            <path d="M16,31.5833333 C7.39356265,31.5833333 0.416666667,24.6064374 0.416666667,16 C0.416666667,7.39356265 7.39356265,0.416666667 16,0.416666667 C24.6064374,0.416666667 31.5833333,7.39356265 31.5833333,16 C31.5833333,24.6064374 24.6064374,31.5833333 16,31.5833333 Z M16,28.75 C23.0416306,28.75 28.75,23.0416306 28.75,16 C28.75,8.95836944 23.0416306,3.25 16,3.25 C8.95836944,3.25 3.25,8.95836944 3.25,16 C3.25,23.0416306 8.95836944,28.75 16,28.75 Z M23.3506347,10.4413227 L20.3473013,19.4513227 C20.2062934,19.8743464 19.8743464,20.2062934 19.4513227,20.3473013 L10.4413227,23.3506347 C9.33383213,23.7197982 8.28020181,22.6661679 8.64936533,21.5586773 L11.6526987,12.5486773 C11.7937066,12.1256536 12.1256536,11.7937066 12.5486773,11.6526987 L21.5586773,8.64936533 C22.6661679,8.28020181 23.7197982,9.33383213 23.3506347,10.4413227 Z M14.11664,14.11664 L12.23328,19.76672 L17.88336,17.88336 L19.76672,12.23328 L14.11664,14.11664 Z" id="Combined-Shape"></path>
                        </g>
                    </g>
                </g>
            </g>
        </g>
    </g>
</svg>