<?xml version="1.0" encoding="UTF-8"?>
<svg width="30px" height="30px" viewBox="0 0 30 30" version="1.1" xmlns="http://www.w3.org/2000/svg" xmlns:xlink="http://www.w3.org/1999/xlink">
    <!-- Generator: Sketch 46.2 (44496) - http://www.bohemiancoding.com/sketch -->
    <title>Facebook</title>
    <desc>Created with Sketch.</desc>
    <defs></defs>
    <g id="HOME" stroke="none" stroke-width="1" fill="none" fill-rule="evenodd">
        <g id="Home---1440px-(desktop-HD)-Copy" transform="translate(-1210.000000, -83.000000)" fill="#FFFFFF">
            <g id="Navigatie">
                <g id="Fill-67" transform="translate(1210.000000, 83.000000)">
                    <path d="M28.6363636,27.2727273 C28.6363636,28.0240909 28.0240909,28.6363636 27.2727273,28.6363636 L19.0909091,28.6363636 L19.0909091,19.0909091 L23.1818182,19.0909091 C23.5159091,19.0909091 23.7995455,18.8495455 23.8540909,18.5209091 L24.5359091,14.43 C24.57,14.2322727 24.5140909,14.0304545 24.3831818,13.8777273 C24.255,13.7236364 24.0640909,13.6363636 23.8636364,13.6363636 L19.0909091,13.6363636 L19.0909091,11.5909091 C19.0909091,11.2145455 19.3963636,10.9090909 19.7727273,10.9090909 L23.8636364,10.9090909 C24.24,10.9090909 24.5454545,10.6036364 24.5454545,10.2272727 L24.5454545,6.13636364 C24.5454545,5.76 24.24,5.45454545 23.8636364,5.45454545 L19.7727273,5.45454545 C16.3895455,5.45454545 13.6363636,8.20772727 13.6363636,11.5909091 L13.6363636,13.6363636 L11.6195455,13.6363636 C11.2431818,13.6363636 10.9377273,13.9418182 10.9377273,14.3181818 L10.9377273,18.4090909 C10.9377273,18.7854545 11.2431818,19.0909091 11.6195455,19.0909091 L13.6363636,19.0909091 L13.6363636,28.6363636 L2.72727273,28.6363636 C1.97590909,28.6363636 1.36363636,28.0240909 1.36363636,27.2727273 L1.36363636,2.72727273 C1.36363636,1.97590909 1.97590909,1.36363636 2.72727273,1.36363636 L27.2727273,1.36363636 C28.0240909,1.36363636 28.6363636,1.97590909 28.6363636,2.72727273 L28.6363636,27.2727273 Z M27.2727273,0 L2.72727273,0 C1.22318182,0 0,1.22318182 0,2.72727273 L0,27.2727273 C0,28.7768182 1.22318182,30 2.72727273,30 L14.3181818,30 C14.6945455,30 15,29.6945455 15,29.3181818 L15,18.4090909 C15,18.0327273 14.6945455,17.7272727 14.3181818,17.7272727 L12.3013636,17.7272727 L12.3013636,15 L14.3181818,15 C14.6945455,15 15,14.6945455 15,14.3181818 L15,11.5909091 C15,8.95909091 17.1409091,6.81818182 19.7727273,6.81818182 L23.1818182,6.81818182 L23.1818182,9.54545455 L19.7727273,9.54545455 C18.645,9.54545455 17.7272727,10.4631818 17.7272727,11.5909091 L17.7272727,14.3181818 C17.7272727,14.6945455 18.0327273,15 18.4090909,15 L23.0590909,15 L22.605,17.7272727 L18.4090909,17.7272727 C18.0327273,17.7272727 17.7272727,18.0327273 17.7272727,18.4090909 L17.7272727,29.3181818 C17.7272727,29.6945455 18.0327273,30 18.4090909,30 L27.2727273,30 C28.7768182,30 30,28.7768182 30,27.2727273 L30,2.72727273 C30,1.22318182 28.7768182,0 27.2727273,0 L27.2727273,0 Z"></path>
                </g>
            </g>
        </g>
    </g>
</svg>