<?xml version="1.0" encoding="UTF-8"?>
<svg width="30px" height="30px" viewBox="0 0 30 30" version="1.1" xmlns="http://www.w3.org/2000/svg" xmlns:xlink="http://www.w3.org/1999/xlink">
    <!-- Generator: Sketch 46.2 (44496) - http://www.bohemiancoding.com/sketch -->
    <title>Instagram</title>
    <desc>Created with Sketch.</desc>
    <defs></defs>
    <g id="HOME" stroke="none" stroke-width="1" fill="none" fill-rule="evenodd">
        <g id="Home---1440px-(desktop-HD)-Copy" transform="translate(-1260.000000, -84.000000)" fill="#FFFFFF">
            <g id="Navigatie">
                <g id="Fill-28" transform="translate(1260.000000, 84.000000)">
                    <path d="M28.6363636,21.8481818 C28.6363636,25.5913636 25.5913636,28.6363636 21.8481818,28.6363636 L8.15181818,28.6363636 C4.40863636,28.6363636 1.36363636,25.5913636 1.36363636,21.8481818 L1.36363636,8.15181818 C1.36363636,4.40863636 4.40863636,1.36363636 8.15181818,1.36363636 L21.8481818,1.36363636 C25.5913636,1.36363636 28.6363636,4.40863636 28.6363636,8.15181818 L28.6363636,21.8481818 Z M21.8481818,0 L8.15181818,0 C3.65727273,0 0,3.65727273 0,8.15181818 L0,21.8481818 C0,26.3427273 3.65727273,30 8.15181818,30 L21.8481818,30 C26.3427273,30 30,26.3427273 30,21.8481818 L30,8.15181818 C30,3.65727273 26.3427273,0 21.8481818,0 L21.8481818,0 Z"></path>
                    <path d="M15,21.8181818 C11.2404545,21.8181818 8.18181818,18.7595455 8.18181818,15 C8.18181818,11.2404545 11.2404545,8.18181818 15,8.18181818 C18.7595455,8.18181818 21.8181818,11.2404545 21.8181818,15 C21.8181818,18.7595455 18.7595455,21.8181818 15,21.8181818 M15,6.81818182 C10.4877273,6.81818182 6.81818182,10.4877273 6.81818182,15 C6.81818182,19.5122727 10.4877273,23.1818182 15,23.1818182 C19.5122727,23.1818182 23.1818182,19.5122727 23.1818182,15 C23.1818182,10.4877273 19.5122727,6.81818182 15,6.81818182" id="Fill-30"></path>
                    <path d="M23.1818182,4.09090909 C22.4304545,4.09090909 21.8181818,4.70318182 21.8181818,5.45454545 C21.8181818,6.20590909 22.4304545,6.81818182 23.1818182,6.81818182 C23.9331818,6.81818182 24.5454545,6.20590909 24.5454545,5.45454545 C24.5454545,4.70318182 23.9331818,4.09090909 23.1818182,4.09090909" id="Fill-32"></path>
                </g>
            </g>
        </g>
    </g>
</svg>