<svg xmlns="http://www.w3.org/2000/svg" xmlns:xlink="http://www.w3.org/1999/xlink" viewBox="0 0 347 706"><defs><style>.cls-1{fill:none;}.cls-2{fill:#e7e3dc;}.cls-3{fill:#c22d34;}.cls-4{fill:#aeaaa5;}.cls-5{fill:#f9ba9b;}.cls-6{fill:#92e0cf;}.cls-7{fill:#9d2229;}.cls-8{fill:#6bc9b4;}.cls-9{fill:#fff2ce;}.cls-10{fill:#684727;}.cls-11{fill:url(#New_Pattern_Swatch_7);}.cls-12{fill:#edb3b6;}.cls-13{fill:#edd391;}</style><pattern id="New_Pattern_Swatch_7" data-name="New Pattern Swatch 7" width="188.11" height="23.58" patternTransform="translate(-170.73 17.49) scale(0.8)" patternUnits="userSpaceOnUse" viewBox="0 0 188.11 23.58"><rect class="cls-1" width="188.11" height="23.58"/><polygon class="cls-2" points="0 23.58 0 11.79 188.11 11.79 188.11 23.58 0 23.58"/><polygon class="cls-3" points="0 11.79 0 0 188.11 0 188.11 11.79 0 11.79"/></pattern></defs><title>Asset 8</title><g id="Layer_2" data-name="Layer 2"><g id="step"><path d="M331.7,571c10.64,1.39,17.4,16.78,15.11,34.37S334,636.08,323.4,634.69,306,617.91,308.31,600.31a51.23,51.23,0,0,1,1.06-5.72,41.08,41.08,0,0,1,8.16-16.86,20.54,20.54,0,0,1,8-6h0A12.55,12.55,0,0,1,331.7,571Zm11.35,33.36c1.37-10.5-2.67-19.69-9-20.52s-12.59,7-14,17.52,2.66,19.7,9,20.53S341.68,614.83,343.05,604.32Z" transform="translate(-0.25 -0.25)"/><path class="cls-4" d="M334,583.8c6.35.83,10.39,10,9,20.52s-7.63,18.35-14,17.53-10.39-10-9-20.53S327.69,583,334,583.8Zm5.27,19.72c.63-4.87-1.25-9.14-4.19-9.53s-5.85,3.26-6.48,8.14,1.23,9.14,4.18,9.52S338.65,608.39,339.3,603.52Z" transform="translate(-0.25 -0.25)"/><path class="cls-5" d="M321.62,286.75c5.85,1.05,3.95,9.18,3.95,9.18-7.94-6.26-27.15,4.41-27.15,4.41a18.63,18.63,0,0,0,.56-4.51V280.7A179,179,0,0,0,321.62,286.75Z" transform="translate(-0.25 -0.25)"/><path class="cls-6" d="M325.57,295.93s6.9,17.95-2.91,21.38-30.3-7.47-30.3-7.47a18.08,18.08,0,0,0,6.06-9.5S317.63,289.67,325.57,295.93Z" transform="translate(-0.25 -0.25)"/><path class="cls-6" d="M282.42,552.93l43.14,18.8a20.54,20.54,0,0,0-8,6l0,0s-21-8.29-27.94-.27A22.78,22.78,0,0,0,285,587.69h0l-7.56,2.64s6.63,29.77-27.9,44.81c-30.79,13.42-44.18,39.23-77.77,38.43a26.85,26.85,0,0,0-4-9.23l.9-.42s8.47-6,14-11.08a35.32,35.32,0,0,0,3.65-3.76,83.12,83.12,0,0,0,21.42-6.46,143.25,143.25,0,0,1,13.77-5.15c7.78-2.5,20.46-7.91,21.42-21.45h0a8.16,8.16,0,0,0,2.32-4.79,7.32,7.32,0,0,0-3.72-6.48s2.23-.19,4.64-3.4c1.77-2.35,3.63-6.31,4.82-13a52.75,52.75,0,0,1,7-18.83,29.6,29.6,0,0,1,3.57-4.77l1.52.09c-.28,4.35,1.08,8.39,6.69,9.08C284,575.71,282.42,552.93,282.42,552.93Z" transform="translate(-0.25 -0.25)"/><path class="cls-4" d="M317.5,577.71l0,0a41.08,41.08,0,0,0-8.16,16.86l-1.3-.33c-3.3-11.89-24,7.08-24,7.08,0-1.11,0-2.2,0-3.31a48.22,48.22,0,0,1,.92-10.34Z" transform="translate(-0.25 -0.25)"/><path class="cls-4" d="M317.5,577.71l-32.53,10a22.78,22.78,0,0,1,4.59-10.25C296.51,569.42,317.5,577.71,317.5,577.71Z" transform="translate(-0.25 -0.25)"/><path class="cls-7" d="M299,280.7v15.13a18.63,18.63,0,0,1-.56,4.51,18.08,18.08,0,0,1-6.06,9.5,17.33,17.33,0,0,1-4.74,2.78,16.89,16.89,0,0,1-6.8,1.17,24.87,24.87,0,0,1-4.89-.67l-4.7-7.29,11.58-5.76a12.12,12.12,0,0,0,6.71-11.43l-.79-16.56,1-1.57a11.52,11.52,0,0,0,3.47,1.91c2,.7,4.3,2.32,5.79,5.95Z" transform="translate(-0.25 -0.25)"/><path class="cls-3" d="M289.72,270.51l-1,1.57.79,16.56a12.12,12.12,0,0,1-6.71,11.43l-11.58,5.76a64.15,64.15,0,0,0-9.87-9.26,170.28,170.28,0,0,0-15.27-10.49c-8.42-5.21-15.39-8.79-15.39-8.79s-42.08-25.13-27.3-73c0,0,10.06-35.82,35.48-27.76l1.49-.34a33.45,33.45,0,0,1,5.25,15.6,12.62,12.62,0,0,0,1.93,5.65,21.06,21.06,0,0,1,3.12,10.43,12.76,12.76,0,0,0,3.58,8.23c2.41,2.52,5.39,7.34,7.37,16.51a12.33,12.33,0,0,0,5,7.51,21.29,21.29,0,0,1,8.66,11.73,12.87,12.87,0,0,0,4.13,6.39,30,30,0,0,1,7,8.39A13.38,13.38,0,0,0,289.72,270.51Z" transform="translate(-0.25 -0.25)"/><path class="cls-4" d="M287.62,312.62v1.89A51.67,51.67,0,0,1,274.29,320c-6.51,1.57-11.63.95-15.5-.48A19.92,19.92,0,0,1,249,312l2.15-5a3.44,3.44,0,0,0,5.11-1.07l5.1-9.3a64.15,64.15,0,0,1,9.87,9.26l4.7,7.29a24.87,24.87,0,0,0,4.89.67A16.89,16.89,0,0,0,287.62,312.62Z" transform="translate(-0.25 -0.25)"/><path class="cls-8" d="M285,587.7h0a48.22,48.22,0,0,0-.92,10.34c0,1.11,0,2.2,0,3.31a64.38,64.38,0,0,1-.6,7.08c-1.25,8.71-4.39,22.59-11.8,25.48-11,4.28-24.62,2.94-61.27,36.92-17.17,15.91-33.28,23.79-44.32,23.74l-9.27-.24c-4-10.56,1.78-22.27,1.78-22.27l13.18,1.53c33.59.8,47-25,77.77-38.43,34.53-15,27.9-44.81,27.9-44.81Z" transform="translate(-0.25 -0.25)"/><path class="cls-4" d="M282.42,552.93s1.61,22.78-12.68,21c-5.61-.69-7-4.73-6.69-9.08.36-5.69,3.5-11.93,3.5-11.93l-.93-27.06s9.91,3.88,15.8-2.75h.12Z" transform="translate(-0.25 -0.25)"/><path class="cls-6" d="M275.55,320.1l6,203h-.12c-5.89,6.63-15.8,2.75-15.8,2.75l-7-205.77.2-.54c3.87,1.43,9,2.05,15.5.48Z" transform="translate(-0.25 -0.25)"/><path class="cls-6" d="M261.36,296.57l-5.1,9.3a3.44,3.44,0,0,1-5.11,1.07c-.52-.41-1.07-.85-1.64-1.33-6.23-5.17-14.91-14.54-3.48-19.44l.06-.09A170.28,170.28,0,0,1,261.36,296.57Z" transform="translate(-0.25 -0.25)"/><path class="cls-4" d="M258,569.54a52.75,52.75,0,0,0-7,18.83c-1.19,6.67-3,10.63-4.82,13,0,0-13.93.87-10.41-21.51,3-19.07,16.19-21.1,17.39-21.26A40.1,40.1,0,0,1,258,569.54Z" transform="translate(-0.25 -0.25)"/><path class="cls-5" d="M249.51,305.61l-.51.22c-3.7,9.29-15.46-3.07-15.73-3.36l-2.57-25.18s7,3.58,15.39,8.79l-.06.09C234.6,291.07,243.28,300.44,249.51,305.61Z" transform="translate(-0.25 -0.25)"/><path class="cls-9" d="M164.55,95.16c.48-.35,17.55-12.76,28.75-9.9a146.65,146.65,0,0,0-6.36,15.27c-.39.08-26,5.44-36.05,62.76-.23,1.3-.46,2.56-.7,3.77-10.49,52.5-33.39,20.79-33.39,20.79s-.17,22.8-2.38,23.64-9.86-16.07-9.86-16.07c-2,4.32-2.52,9.71-2.38,15-18-6.59-14-22.21-14-22.21s10-34.16-6.83-32.94c-16.66,1.2-.82,32.29-.49,32.93-37.57-28.79,29.91-95.52,29.91-95.52s-10-7.11-41.67,12.66S64,142.73,64,142.73c-37.83-16.14,3-52,31-55.88S135.76,45,135.76,45c22.83-59,53.86-39,53.86-39s14.65-14.77,34.87,3.08c0,0,8.37,10.69,16.85,14.68a13.27,13.27,0,0,1,7.72,12.34A32.05,32.05,0,0,1,245.33,50,40,40,0,0,1,240,57.83s2.38,19.81-33.3,19a84.67,84.67,0,0,0-9.64.28C170.17,79.44,164.7,94.72,164.55,95.16Z" transform="translate(-0.25 -0.25)"/><path d="M235.72,579.84c-3.52,22.38,10.41,21.51,10.41,21.51-2.41,3.21-4.64,3.4-4.64,3.4a7.36,7.36,0,0,0-3.26-1c-4.37-.19-9.58-1.7-14.61-3.65h0c-7.56-13.66-.23-43.43,14.25-48.2,7.06-2.33,12,1.8,15.24,6.64C251.91,558.74,238.73,560.77,235.72,579.84Z" transform="translate(-0.25 -0.25)"/><path class="cls-5" d="M186.94,100.53a146.65,146.65,0,0,1,6.36-15.27c2.16-4.49,3.78-7.3,3.78-7.3l-.07-.9a84.67,84.67,0,0,1,9.64-.28c35.68.86,33.3-19,33.3-19A40,40,0,0,0,245.33,50l.44.23S242.13,58.15,237,100a41.45,41.45,0,0,1-11.51,21.82,28.41,28.41,0,0,0-6.31,10.54,7.22,7.22,0,0,1-5.84,5c-5.61.87-12.66-.28-13-.34a102.32,102.32,0,0,0-18.11-12.58C182.18,116.63,184.31,108.12,186.94,100.53Z" transform="translate(-0.25 -0.25)"/><path class="cls-10" d="M241.49,604.75a7.32,7.32,0,0,1,3.72,6.48,8.16,8.16,0,0,1-2.32,4.79h0c-8.54,10.08-40.08,24.43-84.34,18.94l-.52,0c-.24-9.49.76-24,8.8-25.48,27,27.13,36.93-19.17,36.93-19.17a141.32,141.32,0,0,0,19.86,9.8h0c5,2,10.24,3.46,14.61,3.65A7.36,7.36,0,0,1,241.49,604.75Z" transform="translate(-0.25 -0.25)"/><path class="cls-7" d="M209.62,354.74C116.59,344.1,89.91,321,89.91,321c15.71-49.35,12.7-55.09,12.7-55.09s-9.74-18.66,2.78-35.36a87.73,87.73,0,0,1-3.21-20.14c-.14-5.24.41-10.63,2.38-15,0,0,7.65,16.91,9.86,16.07s2.38-23.64,2.38-23.64,22.9,31.71,33.39-20.79c10.76-11.36,23.39-42.82,23.39-42.82,3,12.6,10.95,18.67,18.81,21.56h0a44.77,44.77,0,0,0,18.83,2.28,81.09,81.09,0,0,1,9.38,13.15s12.37,3.54,19.76,14.92l-1.49.34c-25.42-8.06-35.48,27.76-35.48,27.76-14.78,47.91,27.3,73,27.3,73s-10.3,21.72-9.19,78.52l0,.18Q215.39,355.41,209.62,354.74Z" transform="translate(-0.25 -0.25)"/><path class="cls-7" d="M233.27,302.47l5.61,55q-9-.66-17.39-1.48l0-.18c-1.11-56.8,9.19-78.52,9.19-78.52Z" transform="translate(-0.25 -0.25)"/><path class="cls-2" d="M186.28,649.09c-19.59,2.79-27.73-5.94-27.73-5.94s-.42-3.46-.52-8.16l.52,0c44.26,5.49,75.8-8.86,84.34-18.94-1,13.54-13.64,19-21.42,21.45a143.25,143.25,0,0,0-13.77,5.15A83.12,83.12,0,0,1,186.28,649.09Z" transform="translate(-0.25 -0.25)"/><path class="cls-11" d="M227.48,433.7c.25.19,10.73,8.16,4.44,39.74-6.37,32,4.29,22.6-28.16,116.9,0,0-9.88,46.3-36.93,19.17l6-55.51c2.19-20.28,4.92-40.51,8.66-60.56,7.47-40-14.69-52.77-14.69-52.77,3.94-3,11-5.76,22.91-3a56.61,56.61,0,0,0,21.42.94C216.77,437.72,223,436.23,227.48,433.7Z" transform="translate(-0.25 -0.25)"/><path class="cls-12" d="M227.48,433.7c-4.53,2.53-10.71,4-16.32,4.89a56.61,56.61,0,0,1-21.42-.94c-11.91-2.74-19,0-22.91,3A34.27,34.27,0,0,1,149,447.61c-4.9.44-9.65.67-14.26.74a192.22,192.22,0,0,1-56.53-7.5,112.84,112.84,0,0,1-12.46-4.33c.81-38.39,10.49-31.45,9.68-58.48C74.18,337.66,89.91,321,89.91,321s26.68,23.14,119.71,33.78c1,8.1,5.8,38.37,23.27,74.14A14.23,14.23,0,0,1,227.48,433.7Z" transform="translate(-0.25 -0.25)"/><path class="cls-3" d="M200.27,137a105.69,105.69,0,0,1,11,11.06,44.77,44.77,0,0,1-18.83-2.28h0c-7.6-4.63-10.25-12.54-10.23-21.36A102.32,102.32,0,0,1,200.27,137Z" transform="translate(-0.25 -0.25)"/><path class="cls-13" d="M197,77.06l.07.9s-1.62,2.81-3.78,7.3c-11.2-2.86-28.27,9.55-28.75,9.9C164.7,94.72,170.17,79.44,197,77.06Z" transform="translate(-0.25 -0.25)"/><path class="cls-8" d="M186.28,649.09a35.32,35.32,0,0,1-3.65,3.76h0l-6,.28A47.34,47.34,0,0,0,160,656.93a26.28,26.28,0,0,0-8.77-3.61c.19-1.21,1.44-7.52,7.29-10.17C158.55,643.15,166.69,651.88,186.28,649.09Z" transform="translate(-0.25 -0.25)"/><path class="cls-8" d="M182.62,652.84h0c-5.56,5-14,11.08-14,11.08l-.9.42a27.1,27.1,0,0,0-7.67-7.42,47.34,47.34,0,0,1,16.57-3.81Z" transform="translate(-0.25 -0.25)"/><path class="cls-13" d="M182.16,124.44c0,8.82,2.63,16.73,10.23,21.36-7.86-2.89-15.85-9-18.81-21.56,0,0-12.63,31.46-23.39,42.82.24-1.21.47-2.47.7-3.77,10.05-57.32,35.66-62.68,36.05-62.76C184.31,108.12,182.18,116.63,182.16,124.44Z" transform="translate(-0.25 -0.25)"/><path d="M151.26,653.32a26.28,26.28,0,0,1,8.77,3.61,26.74,26.74,0,0,1,11.7,16.65l-13.18-1.53s-10.89,4.48-9.38,22.07l7.6.2,9.27.24,1.67.05a26.77,26.77,0,1,1-22.09-41.89A26.2,26.2,0,0,1,151.26,653.32Z" transform="translate(-0.25 -0.25)"/><path class="cls-4" d="M156.77,694.32l-7.6-.2c-1.51-17.59,9.38-22.07,9.38-22.07S152.8,683.76,156.77,694.32Z" transform="translate(-0.25 -0.25)"/><path class="cls-11" d="M134.69,448.35v0s-2.19,55.88-28.11,89.76a231.88,231.88,0,0,0-23.8,37.72C71.21,599.19,56.9,631.8,56.58,651c0,0-13.91,16.39-25.11,4.66-10.65-11.14-18.2-11.21-18.92-11.18,1.91,0,3.11-3.64,4.82-6.34a91.46,91.46,0,0,0,12.74-34.48c9.07-56,20.94-77,39.12-95.63,19.66-20.14,8.93-67.21,8.93-67.21A192.22,192.22,0,0,0,134.69,448.35Z" transform="translate(-0.25 -0.25)"/><path class="cls-2" d="M74.63,685.27c1.48,9.85-2.84,13.83-8.86,15,0,0-3.66.16-9.35,0h0a50.64,50.64,0,0,1-21.16-8.12c-25.68-17.14-35-8.29-35-8.29s-.15-4.94.23-11.31c2.4-.91,21.34-7.33,37.8,10C53.44,698.5,72.58,694.6,74.63,685.27Z" transform="translate(-0.25 -0.25)"/><path class="cls-10" d="M74.15,680.3h0a8.52,8.52,0,0,1,.46,5c-2,9.33-21.19,13.23-36.32-2.73-16.46-17.36-35.4-10.94-37.8-10,.71-11.72,3.26-28.31,12-28h.06c.72,0,8.27,0,18.92,11.18C42.67,667.42,56.58,651,56.58,651s6.39,3.3,3.55,12.19c0,0,4.17,0,3.6,4.93,0,0,5.11,1.13,4,8.51C67.7,676.66,74.08,674.14,74.15,680.3Z" transform="translate(-0.25 -0.25)"/><path class="cls-2" d="M56.42,700.23c5.69.17,9.35,0,9.35,0A29.61,29.61,0,0,1,56.42,700.23Z" transform="translate(-0.25 -0.25)"/><path class="cls-4" d="M35.25,692.11a50.64,50.64,0,0,0,21.16,8.12c-14.53-.45-42.25-3.14-56.13-16.41C.28,683.82,9.57,675,35.25,692.11Z" transform="translate(-0.25 -0.25)"/></g></g></svg>