<?xml version="1.0" encoding="UTF-8"?>
<svg width="31px" height="26px" viewBox="0 0 31 26" version="1.1" xmlns="http://www.w3.org/2000/svg" xmlns:xlink="http://www.w3.org/1999/xlink">
    <!-- Generator: Sketch 46.2 (44496) - http://www.bohemiancoding.com/sketch -->
    <title>Twitter</title>
    <desc>Created with Sketch.</desc>
    <defs></defs>
    <g id="HOME" stroke="none" stroke-width="1" fill="none" fill-rule="evenodd">
        <g id="Home---1440px-(desktop-HD)-Copy" transform="translate(-1159.000000, -87.000000)" fill="#FFFFFF">
            <g id="Navigatie">
                <g id="Fill-69" transform="translate(1159.000000, 87.000000)">
                    <path d="M26.920084,6.2257 C26.7198757,6.3609 26.610084,6.5975 26.637209,6.8393 C27.0854174,10.881 25.4178757,15.5844 22.285584,19.1126 C19.0900007,22.711 14.8442924,24.6961 10.3325007,24.7 L10.311834,24.7 C7.90029237,24.7 5.6398757,24.2723 3.46341737,23.4 C6.0196257,23.1244 8.49058404,22.1273 10.1232507,20.631 C10.3170007,20.4516 10.385459,20.1708 10.292459,19.9225 C10.199459,19.6729 9.96695904,19.5065 9.70216737,19.5 C7.7052507,19.4545 5.7600007,18.3261 4.5277507,16.5841 C5.40220904,16.7128 6.2443757,16.6413 6.87858404,16.0927 C7.0736257,15.9237 7.1511257,15.6559 7.07620904,15.4089 C7.0000007,15.1619 6.78558404,14.9825 6.52983404,14.9539 C5.81941737,14.8733 2.81629237,13.4563 2.0942507,10.4273 C2.86408404,10.8719 3.7837507,11.2138 4.64916737,11.037 C4.9113757,10.9837 5.1128757,10.7731 5.15808404,10.5079 C5.2020007,10.2427 5.07929237,9.9775 4.85066737,9.841 C3.66879237,9.1364 1.55433404,6.2426 2.73233404,3.1343 C4.63108404,5.2533 8.74245904,8.736 15.465584,9.0987 C15.6761257,9.1065 15.8660007,9.022 15.996459,8.866 C16.1269174,8.7087 16.1760007,8.4981 16.128209,8.2979 C15.8130424,6.9797 15.864709,3.6452 18.0747507,2.3257 C19.2772924,1.6068 20.2460424,1.3 21.312959,1.3 C22.804834,1.3 23.986709,1.8252 25.2667507,3.055 C25.4114174,3.1928 25.606459,3.2578 25.8053757,3.2279 C26.4408757,3.1343 27.3179174,2.8444 28.1110007,2.5259 C27.6421257,3.1577 27.0802507,3.6855 26.6707924,3.8519 C26.3827507,3.9689 26.2200007,4.2744 26.2781257,4.5799 C26.338834,4.8854 26.6036257,5.1051 26.912334,5.1051 L26.9149174,5.1051 C27.3295424,5.1038 27.912084,5.0076 28.5023757,4.8724 C27.9069174,5.4769 27.3050007,5.967 26.920084,6.2257 M30.8273757,3.159 C30.6297507,2.9445 30.3120007,2.8899 30.0536674,3.0264 C29.8702507,3.1239 29.5098757,3.2513 29.090084,3.3761 C29.5951257,2.7092 30.004584,1.9513 30.1802507,1.2727 C30.248709,1.0088 30.1453757,0.7293 29.9219174,0.5733 C29.6971674,0.4186 29.4013757,0.4212 29.1805007,0.5785 C28.8020424,0.8502 27.0466674,1.6328 25.9138757,1.8863 C24.474959,0.585 23.045084,0 21.312959,0 C20.014834,0 18.813584,0.3731 17.414709,1.2077 C14.977334,2.6637 14.5562507,5.811 14.7357924,7.7415 C8.12116737,7.1071 4.41020904,3.2331 3.0901257,1.547 C2.95966737,1.378 2.75041737,1.2987 2.53858404,1.3013 C2.32545904,1.3169 2.1330007,1.4365 2.02579237,1.6224 C0.447375703,4.3433 1.09320904,7.1435 2.30608404,9.0285 C2.10845904,8.892 1.90566737,8.7386 1.70416737,8.5709 C1.51041737,8.411 1.24304237,8.3746 1.0170007,8.4838 C0.790959036,8.5904 0.64629237,8.8192 0.64629237,9.0714 C0.64629237,11.9288 2.30866737,13.9698 3.9310007,15.1294 C3.7527507,15.0813 3.58095904,15.0293 3.42208404,14.9786 C3.1792507,14.9045 2.9157507,14.976 2.74654237,15.1671 C2.5786257,15.3582 2.5360007,15.6312 2.63933404,15.8639 C3.67654237,18.2104 5.7406257,19.9602 8.05141737,20.5686 C6.04158404,21.801 3.27741737,22.4081 0.721209036,22.1039 C0.418959036,22.0636 0.128334036,22.2534 0.0327507031,22.5472 C-0.0641242969,22.8397 0.0598757031,23.1608 0.325959036,23.3142 C3.4698757,25.1212 6.7365007,26 10.3105424,26 L10.3337924,26 C15.217584,25.9961 19.8042924,23.8576 23.2478757,19.9784 C26.571334,16.2357 28.315084,11.4426 27.9572924,7.0785 C28.8123757,6.4363 30.1040424,5.2351 30.9022924,3.9455 C31.0572924,3.6959 31.0262924,3.3735 30.8273757,3.159"></path>
                </g>
            </g>
        </g>
    </g>
</svg>